<svg width="88" height="88" viewBox="0 0 88 88" fill="none" xmlns="http://www.w3.org/2000/svg">
<path d="M75.4541 41.5936L17.3947 9.07484C16.9057 8.80466 16.3459 8.68986 15.79 8.74571C15.2341 8.80157 14.7084 9.02544 14.2828 9.38751C13.8573 9.74958 13.5522 10.2327 13.408 10.7725C13.2639 11.3123 13.2876 11.8832 13.476 12.4092L24.4072 43.0717C24.6481 43.667 24.6481 44.3326 24.4072 44.928L13.476 75.5905C13.2876 76.1165 13.2639 76.6874 13.408 77.2272C13.5522 77.767 13.8573 78.2501 14.2828 78.6122C14.7084 78.9742 15.2341 79.1981 15.79 79.254C16.3459 79.3098 16.9057 79.195 17.3947 78.9248L75.4541 46.4061C75.8839 46.1683 76.2422 45.8197 76.4917 45.3965C76.7412 44.9733 76.8728 44.4911 76.8728 43.9998C76.8728 43.5086 76.7412 43.0263 76.4917 42.6032C76.2422 42.18 75.8839 41.8314 75.4541 41.5936V41.5936Z" stroke="white" stroke-width="3" stroke-linecap="round" stroke-linejoin="round"/>
<path d="M24.75 44H46.75" stroke="white" stroke-width="3" stroke-linecap="round" stroke-linejoin="round"/>
</svg>
