<svg width="39" height="39" viewBox="0 0 39 39" fill="none" xmlns="http://www.w3.org/2000/svg">
<path d="M5.56053 20.5664L31.2914 34.9781C31.5081 35.0978 31.7562 35.1487 32.0026 35.124C32.249 35.0992 32.4819 35 32.6705 34.8395C32.8591 34.6791 32.9944 34.465 33.0582 34.2257C33.1221 33.9865 33.1116 33.7335 33.0281 33.5004L28.1836 19.9113C28.0769 19.6475 28.0769 19.3525 28.1836 19.0886L33.0281 5.49958C33.1116 5.26647 33.1221 5.01345 33.0582 4.77422C32.9944 4.53498 32.8591 4.32088 32.6705 4.16042C32.4819 3.99996 32.249 3.90074 32.0026 3.87599C31.7562 3.85123 31.5081 3.90211 31.2914 4.02185L5.56053 18.4336C5.37004 18.539 5.21126 18.6935 5.10069 18.881C4.99012 19.0685 4.93181 19.2823 4.93181 19.5C4.93181 19.7177 4.99012 19.9314 5.10069 20.1189C5.21126 20.3065 5.37004 20.461 5.56053 20.5664V20.5664Z" stroke="#34B5CF" stroke-width="2" stroke-linecap="round" stroke-linejoin="round"/>
<path d="M28.0312 19.5H18.2812" stroke="#34B5CF" stroke-width="2" stroke-linecap="round" stroke-linejoin="round"/>
</svg>
