<svg width="88" height="88" viewBox="0 0 88 88" fill="none" xmlns="http://www.w3.org/2000/svg">
<path d="M12.5459 46.4064L70.6053 78.9252C71.0943 79.1953 71.6541 79.3101 72.21 79.2543C72.7659 79.1984 73.2916 78.9746 73.7172 78.6125C74.1427 78.2504 74.4478 77.7673 74.592 77.2275C74.7361 76.6877 74.7124 76.1168 74.524 75.5908L63.5928 44.9283C63.3519 44.333 63.3519 43.6674 63.5928 43.072L74.524 12.4095C74.7124 11.8835 74.7361 11.3126 74.592 10.7728C74.4478 10.233 74.1427 9.74991 73.7172 9.38784C73.2916 9.02577 72.7659 8.8019 72.21 8.74604C71.6541 8.69018 71.0943 8.80498 70.6053 9.07516L12.5459 41.5939C12.1161 41.8317 11.7578 42.1803 11.5083 42.6035C11.2588 43.0267 11.1272 43.5089 11.1272 44.0002C11.1272 44.4914 11.2588 44.9737 11.5083 45.3968C11.7578 45.82 12.1161 46.1686 12.5459 46.4064V46.4064Z" stroke="white" stroke-width="3" stroke-linecap="round" stroke-linejoin="round"/>
<path d="M63.25 44H41.25" stroke="white" stroke-width="3" stroke-linecap="round" stroke-linejoin="round"/>
</svg>
