<svg width="39" height="39" viewBox="0 0 39 39" fill="none" xmlns="http://www.w3.org/2000/svg">
<path d="M33.4395 18.4336L7.70861 4.02187C7.49187 3.90213 7.2438 3.85126 6.99742 3.87601C6.75105 3.90077 6.51805 3.99998 6.32947 4.16044C6.14088 4.32091 6.00565 4.53501 5.94177 4.77424C5.87789 5.01348 5.88839 5.26649 5.97189 5.49961L10.8164 19.0887C10.9231 19.3525 10.9231 19.6475 10.8164 19.9113L5.97189 33.5004C5.88839 33.7335 5.87789 33.9865 5.94177 34.2258C6.00565 34.465 6.14088 34.6791 6.32947 34.8395C6.51805 35 6.75105 35.0992 6.99742 35.124C7.2438 35.1487 7.49187 35.0979 7.70861 34.9781L33.4395 20.5664C33.63 20.461 33.7887 20.3065 33.8993 20.119C34.0099 19.9314 34.0682 19.7177 34.0682 19.5C34.0682 19.2823 34.0099 19.0686 33.8993 18.881C33.7887 18.6935 33.63 18.539 33.4395 18.4336V18.4336Z" stroke="#34B5CF" stroke-width="2" stroke-linecap="round" stroke-linejoin="round"/>
<path d="M10.9688 19.5H20.7188" stroke="#34B5CF" stroke-width="2" stroke-linecap="round" stroke-linejoin="round"/>
</svg>
